<?xml version="1.0" standalone="no"?><svg xmlns="http://www.w3.org/2000/svg" viewBox="0 0 1440 320"><path fill="#f3f4f5" fill-opacity="1" d="M0,256L14.1,256C28.2,256,56,256,85,218.7C112.9,181,141,107,169,112C197.6,117,226,203,254,245.3C282.4,288,311,288,339,245.3C367.1,203,395,117,424,96C451.8,75,480,117,508,117.3C536.5,117,565,75,593,96C621.2,117,649,203,678,224C705.9,245,734,203,762,202.7C790.6,203,819,245,847,229.3C875.3,213,904,139,932,117.3C960,96,988,128,1016,149.3C1044.7,171,1073,181,1101,165.3C1129.4,149,1158,107,1186,96C1214.1,85,1242,107,1271,106.7C1298.8,107,1327,85,1355,106.7C1383.5,128,1412,192,1426,224L1440,256L1440,0L1425.9,0C1411.8,0,1384,0,1355,0C1327.1,0,1299,0,1271,0C1242.4,0,1214,0,1186,0C1157.6,0,1129,0,1101,0C1072.9,0,1045,0,1016,0C988.2,0,960,0,932,0C903.5,0,875,0,847,0C818.8,0,791,0,762,0C734.1,0,706,0,678,0C649.4,0,621,0,593,0C564.7,0,536,0,508,0C480,0,452,0,424,0C395.3,0,367,0,339,0C310.6,0,282,0,254,0C225.9,0,198,0,169,0C141.2,0,113,0,85,0C56.5,0,28,0,14,0L0,0Z"></path></svg>